<svg width="1103" height="60" viewBox="0 0 1103 60" fill="none" xmlns="http://www.w3.org/2000/svg">
<path d="M802.4 0H922.4V60C922.4 93.1371 895.537 120 862.4 120V120C829.263 120 802.4 93.1371 802.4 60V0Z" fill="#D36161"/>
<path d="M119.2 0H239.2V45C239.2 86.4214 205.621 120 164.2 120H119.2V0Z" fill="#D36161"/>
<path d="M0 75C0 33.5786 33.5786 0 75 0H120V120H0V75Z" fill="#476194"/>
<path d="M922.4 0H952.4C968.969 0 982.4 13.4315 982.4 30V30C982.4 46.5685 968.969 60 952.4 60H922.4V0Z" fill="#476194"/>
<path d="M1042.4 0H1072.4C1088.97 0 1102.4 13.4315 1102.4 30V30C1102.4 46.5685 1088.97 60 1072.4 60H1042.4V0Z" fill="#D36161"/>
<path d="M742.4 30C742.4 13.4315 755.831 0 772.4 0H802.4V29.0323C802.4 46.1353 788.535 60 771.432 60V60C755.398 60 742.4 47.0018 742.4 30.9677V30Z" fill="#E5E5E5"/>
<path d="M239.2 30C239.2 13.4315 252.631 0 269.2 0H270.168C286.202 0 299.2 12.9982 299.2 29.0323V29.0323C299.2 46.1353 285.335 60 268.232 60V60C252.198 60 239.2 47.0018 239.2 30.9677V30Z" fill="#E5E5E5"/>
</svg>
