<svg width="150" height="304" viewBox="0 0 150 304" fill="none" xmlns="http://www.w3.org/2000/svg">
<path d="M75 37.5C75 16.7893 91.7893 0 112.5 0H150V38.5C150 59.2107 133.211 76 112.5 76H75V37.5Z" fill="#E5E5E5"/>
<path d="M75 113.5C75 92.7893 91.7893 76 112.5 76C133.211 76 150 92.7893 150 113.5V114.5C150 135.211 133.211 152 112.5 152C91.7893 152 75 135.211 75 114.5V113.5Z" fill="#476194"/>
<path d="M0 113.5C0 92.7893 16.7893 76 37.5 76H75V152H37.5C16.7893 152 0 135.211 0 114.5V113.5Z" fill="#D36161"/>
<path d="M75 228H112.5C133.211 228 150 244.789 150 265.5V266.5C150 287.211 133.211 304 112.5 304C91.7893 304 75 287.211 75 266.5V228Z" fill="#D36161"/>
<path d="M75 152H112.5C133.211 152 150 168.789 150 189.5V228H75V152Z" fill="#E5E5E5"/>
<path d="M0 189.5C0 168.789 16.7893 152 37.5 152H75V228H37.5C16.7893 228 0 211.211 0 190.5V189.5Z" fill="#E5E5E5"/>
</svg>
