<svg width="1203" height="131" viewBox="0 0 1203 131" fill="none" xmlns="http://www.w3.org/2000/svg">
<path d="M875.623 63.3632C875.623 28.3687 903.992 0 938.987 0H941.099C977.26 0 1006.57 29.3143 1006.57 65.4753V130.951H943.211C905.883 130.951 875.623 100.691 875.623 63.3632V63.3632Z" fill="#D36161"/>
<path d="M130.078 0H195.553C231.714 0 261.028 29.3143 261.028 65.4753V65.4753C261.028 101.636 231.714 130.951 195.553 130.951H130.078V0Z" fill="#476194"/>
<path d="M0 65.4753C0 29.3143 29.3143 0 65.4753 0V0C101.636 0 130.951 29.3143 130.951 65.4753V65.4753C130.951 101.636 101.636 130.951 65.4753 130.951V130.951C29.3143 130.951 0 101.636 0 65.4753V65.4753Z" fill="#E5E5E5"/>
<path d="M1006.57 0H1137.52V65.4753H1044.07C1023.36 65.4753 1006.57 48.686 1006.57 27.9753V0Z" fill="#476194"/>
<path d="M1072.05 37.5C1072.05 16.7893 1088.84 0 1109.55 0H1137.52V93.4507C1137.52 114.161 1120.74 130.951 1100.02 130.951H1072.05V37.5Z" fill="#476194"/>
<path d="M1137.52 98.213C1137.52 80.1325 1152.18 65.4753 1170.26 65.4753V65.4753C1188.34 65.4753 1203 80.1325 1203 98.213V98.213C1203 116.293 1188.34 130.951 1170.26 130.951V130.951C1152.18 130.951 1137.52 116.293 1137.52 98.213V98.213Z" fill="#D0D0D0"/>
<path d="M1006.57 0H1165.5C1186.21 0 1203 16.7893 1203 37.5V65.4753H1044.07C1023.36 65.4753 1006.57 48.686 1006.57 27.9753V0Z" fill="#D36161"/>
<path d="M810.148 32.7377C810.148 14.6571 824.805 0 842.886 0H843.942C861.439 0 875.623 14.1843 875.623 31.6816V31.6816C875.623 50.3454 860.493 65.4753 841.83 65.4753V65.4753C824.332 65.4753 810.148 51.291 810.148 33.7937V32.7377Z" fill="#E5E5E5"/>
<path d="M744.673 98.213C744.673 80.1325 759.33 65.4753 777.41 65.4753H778.466C795.964 65.4753 810.148 79.6597 810.148 97.1569V97.1569C810.148 115.821 795.018 130.951 776.354 130.951V130.951C758.857 130.951 744.673 116.766 744.673 99.269V98.213Z" fill="#D36161"/>
<path d="M261.028 32.7377C261.028 14.6572 275.685 0 293.766 0H294.822C312.319 0 326.504 14.1843 326.504 31.6816V31.6816C326.504 50.3454 311.374 65.4753 292.71 65.4753V65.4753C275.213 65.4753 261.028 51.291 261.028 33.7937V32.7377Z" fill="#D36161"/>
</svg>
